<svg xmlns="http://www.w3.org/2000/svg" xmlns:xlink="http://www.w3.org/1999/xlink" width="500" zoomAndPan="magnify" viewBox="0 0 375 374.999991" height="500" preserveAspectRatio="xMidYMid meet" version="1.0"><defs><clipPath id="ee4cc1dbf8"><path d="M 0 0 L 374.648438 0 L 374.648438 374.648438 L 0 374.648438 Z M 0 0 " clip-rule="nonzero"/></clipPath><clipPath id="42e2bbb845"><path d="M 187.5 0 C 83.945312 0 0 83.945312 0 187.5 C 0 291.054688 83.945312 375 187.5 375 C 291.054688 375 375 291.054688 375 187.5 C 375 83.945312 291.054688 0 187.5 0 " clip-rule="nonzero"/></clipPath><linearGradient x1="-0" gradientTransform="matrix(0.705555, 0, 0, 0.705555, 0.0000045, 0)" y1="0" x2="531.000008" gradientUnits="userSpaceOnUse" y2="0" id="2e3ac0e788"><stop stop-opacity="1" stop-color="rgb(0%, 0%, 0%)" offset="0"/><stop stop-opacity="1" stop-color="rgb(0.1297%, 0.1297%, 0.1297%)" offset="0.0078125"/><stop stop-opacity="1" stop-color="rgb(0.389099%, 0.389099%, 0.389099%)" offset="0.015625"/><stop stop-opacity="1" stop-color="rgb(0.648499%, 0.648499%, 0.648499%)" offset="0.0234375"/><stop stop-opacity="1" stop-color="rgb(0.909424%, 0.909424%, 0.909424%)" offset="0.03125"/><stop stop-opacity="1" stop-color="rgb(1.168823%, 1.168823%, 1.168823%)" offset="0.0390625"/><stop stop-opacity="1" stop-color="rgb(1.428223%, 1.428223%, 1.428223%)" offset="0.046875"/><stop stop-opacity="1" stop-color="rgb(1.689148%, 1.689148%, 1.689148%)" offset="0.0546875"/><stop stop-opacity="1" stop-color="rgb(1.948547%, 1.948547%, 1.948547%)" offset="0.0625"/><stop stop-opacity="1" stop-color="rgb(2.207947%, 2.207947%, 2.207947%)" offset="0.0703125"/><stop stop-opacity="1" stop-color="rgb(2.468872%, 2.468872%, 2.468872%)" offset="0.078125"/><stop stop-opacity="1" stop-color="rgb(2.728271%, 2.728271%, 2.728271%)" offset="0.0859375"/><stop stop-opacity="1" stop-color="rgb(2.987671%, 2.987671%, 2.987671%)" offset="0.09375"/><stop stop-opacity="1" stop-color="rgb(3.248596%, 3.248596%, 3.248596%)" offset="0.101562"/><stop stop-opacity="1" stop-color="rgb(3.507996%, 3.507996%, 3.507996%)" offset="0.109375"/><stop stop-opacity="1" stop-color="rgb(3.767395%, 3.767395%, 3.767395%)" offset="0.117187"/><stop stop-opacity="1" stop-color="rgb(4.02832%, 4.02832%, 4.02832%)" offset="0.125"/><stop stop-opacity="1" stop-color="rgb(4.28772%, 4.28772%, 4.28772%)" offset="0.132812"/><stop stop-opacity="1" stop-color="rgb(4.547119%, 4.547119%, 4.547119%)" offset="0.140625"/><stop stop-opacity="1" stop-color="rgb(4.808044%, 4.808044%, 4.808044%)" offset="0.148438"/><stop stop-opacity="1" stop-color="rgb(5.067444%, 5.067444%, 5.067444%)" offset="0.15625"/><stop stop-opacity="1" stop-color="rgb(5.326843%, 5.326843%, 5.326843%)" offset="0.164062"/><stop stop-opacity="1" stop-color="rgb(5.587769%, 5.587769%, 5.587769%)" offset="0.171875"/><stop stop-opacity="1" stop-color="rgb(5.847168%, 5.847168%, 5.847168%)" offset="0.179688"/><stop stop-opacity="1" stop-color="rgb(6.106567%, 6.106567%, 6.106567%)" offset="0.1875"/><stop stop-opacity="1" stop-color="rgb(6.367493%, 6.367493%, 6.367493%)" offset="0.195312"/><stop stop-opacity="1" stop-color="rgb(6.626892%, 6.626892%, 6.626892%)" offset="0.203125"/><stop stop-opacity="1" stop-color="rgb(6.886292%, 6.886292%, 6.886292%)" offset="0.210937"/><stop stop-opacity="1" stop-color="rgb(7.147217%, 7.147217%, 7.147217%)" offset="0.21875"/><stop stop-opacity="1" stop-color="rgb(7.406616%, 7.406616%, 7.406616%)" offset="0.226562"/><stop stop-opacity="1" stop-color="rgb(7.666016%, 7.666016%, 7.666016%)" offset="0.234375"/><stop stop-opacity="1" stop-color="rgb(7.926941%, 7.926941%, 7.926941%)" offset="0.242188"/><stop stop-opacity="1" stop-color="rgb(8.18634%, 8.18634%, 8.18634%)" offset="0.25"/><stop stop-opacity="1" stop-color="rgb(8.44574%, 8.44574%, 8.44574%)" offset="0.257812"/><stop stop-opacity="1" stop-color="rgb(8.706665%, 8.706665%, 8.706665%)" offset="0.265625"/><stop stop-opacity="1" stop-color="rgb(8.966064%, 8.966064%, 8.966064%)" offset="0.273438"/><stop stop-opacity="1" stop-color="rgb(9.225464%, 9.225464%, 9.225464%)" offset="0.28125"/><stop stop-opacity="1" stop-color="rgb(9.486389%, 9.486389%, 9.486389%)" offset="0.289062"/><stop stop-opacity="1" stop-color="rgb(9.745789%, 9.745789%, 9.745789%)" offset="0.296875"/><stop stop-opacity="1" stop-color="rgb(10.005188%, 10.005188%, 10.005188%)" offset="0.304688"/><stop stop-opacity="1" stop-color="rgb(10.266113%, 10.266113%, 10.266113%)" offset="0.3125"/><stop stop-opacity="1" stop-color="rgb(10.525513%, 10.525513%, 10.525513%)" offset="0.320312"/><stop stop-opacity="1" stop-color="rgb(10.784912%, 10.784912%, 10.784912%)" offset="0.328125"/><stop stop-opacity="1" stop-color="rgb(11.045837%, 11.045837%, 11.045837%)" offset="0.335938"/><stop stop-opacity="1" stop-color="rgb(11.305237%, 11.305237%, 11.305237%)" offset="0.34375"/><stop stop-opacity="1" stop-color="rgb(11.564636%, 11.564636%, 11.564636%)" offset="0.351562"/><stop stop-opacity="1" stop-color="rgb(11.825562%, 11.825562%, 11.825562%)" offset="0.359375"/><stop stop-opacity="1" stop-color="rgb(12.084961%, 12.084961%, 12.084961%)" offset="0.367188"/><stop stop-opacity="1" stop-color="rgb(12.345886%, 12.345886%, 12.345886%)" offset="0.375"/><stop stop-opacity="1" stop-color="rgb(12.605286%, 12.605286%, 12.605286%)" offset="0.382812"/><stop stop-opacity="1" stop-color="rgb(12.864685%, 12.864685%, 12.864685%)" offset="0.390625"/><stop stop-opacity="1" stop-color="rgb(13.12561%, 13.12561%, 13.12561%)" offset="0.398437"/><stop stop-opacity="1" stop-color="rgb(13.38501%, 13.38501%, 13.38501%)" offset="0.40625"/><stop stop-opacity="1" stop-color="rgb(13.644409%, 13.644409%, 13.644409%)" offset="0.414062"/><stop stop-opacity="1" stop-color="rgb(13.905334%, 13.905334%, 13.905334%)" offset="0.421875"/><stop stop-opacity="1" stop-color="rgb(14.164734%, 14.164734%, 14.164734%)" offset="0.429688"/><stop stop-opacity="1" stop-color="rgb(14.424133%, 14.424133%, 14.424133%)" offset="0.4375"/><stop stop-opacity="1" stop-color="rgb(14.685059%, 14.685059%, 14.685059%)" offset="0.445312"/><stop stop-opacity="1" stop-color="rgb(14.944458%, 14.944458%, 14.944458%)" offset="0.453125"/><stop stop-opacity="1" stop-color="rgb(15.203857%, 15.203857%, 15.203857%)" offset="0.460938"/><stop stop-opacity="1" stop-color="rgb(15.464783%, 15.464783%, 15.464783%)" offset="0.46875"/><stop stop-opacity="1" stop-color="rgb(15.724182%, 15.724182%, 15.724182%)" offset="0.476562"/><stop stop-opacity="1" stop-color="rgb(15.983582%, 15.983582%, 15.983582%)" offset="0.484375"/><stop stop-opacity="1" stop-color="rgb(16.244507%, 16.244507%, 16.244507%)" offset="0.492187"/><stop stop-opacity="1" stop-color="rgb(16.503906%, 16.503906%, 16.503906%)" offset="0.5"/><stop stop-opacity="1" stop-color="rgb(16.763306%, 16.763306%, 16.763306%)" offset="0.507812"/><stop stop-opacity="1" stop-color="rgb(17.024231%, 17.024231%, 17.024231%)" offset="0.515625"/><stop stop-opacity="1" stop-color="rgb(17.28363%, 17.28363%, 17.28363%)" offset="0.523438"/><stop stop-opacity="1" stop-color="rgb(17.54303%, 17.54303%, 17.54303%)" offset="0.53125"/><stop stop-opacity="1" stop-color="rgb(17.803955%, 17.803955%, 17.803955%)" offset="0.539062"/><stop stop-opacity="1" stop-color="rgb(18.063354%, 18.063354%, 18.063354%)" offset="0.546875"/><stop stop-opacity="1" stop-color="rgb(18.322754%, 18.322754%, 18.322754%)" offset="0.554688"/><stop stop-opacity="1" stop-color="rgb(18.583679%, 18.583679%, 18.583679%)" offset="0.5625"/><stop stop-opacity="1" stop-color="rgb(18.843079%, 18.843079%, 18.843079%)" offset="0.570312"/><stop stop-opacity="1" stop-color="rgb(19.102478%, 19.102478%, 19.102478%)" offset="0.578125"/><stop stop-opacity="1" stop-color="rgb(19.363403%, 19.363403%, 19.363403%)" offset="0.585938"/><stop stop-opacity="1" stop-color="rgb(19.622803%, 19.622803%, 19.622803%)" offset="0.59375"/><stop stop-opacity="1" stop-color="rgb(19.882202%, 19.882202%, 19.882202%)" offset="0.601562"/><stop stop-opacity="1" stop-color="rgb(20.143127%, 20.143127%, 20.143127%)" offset="0.609375"/><stop stop-opacity="1" stop-color="rgb(20.402527%, 20.402527%, 20.402527%)" offset="0.617188"/><stop stop-opacity="1" stop-color="rgb(20.661926%, 20.661926%, 20.661926%)" offset="0.625"/><stop stop-opacity="1" stop-color="rgb(20.922852%, 20.922852%, 20.922852%)" offset="0.632812"/><stop stop-opacity="1" stop-color="rgb(21.182251%, 21.182251%, 21.182251%)" offset="0.640625"/><stop stop-opacity="1" stop-color="rgb(21.44165%, 21.44165%, 21.44165%)" offset="0.648438"/><stop stop-opacity="1" stop-color="rgb(21.702576%, 21.702576%, 21.702576%)" offset="0.65625"/><stop stop-opacity="1" stop-color="rgb(21.961975%, 21.961975%, 21.961975%)" offset="0.664062"/><stop stop-opacity="1" stop-color="rgb(22.221375%, 22.221375%, 22.221375%)" offset="0.671875"/><stop stop-opacity="1" stop-color="rgb(22.4823%, 22.4823%, 22.4823%)" offset="0.679688"/><stop stop-opacity="1" stop-color="rgb(22.741699%, 22.741699%, 22.741699%)" offset="0.6875"/><stop stop-opacity="1" stop-color="rgb(23.001099%, 23.001099%, 23.001099%)" offset="0.695312"/><stop stop-opacity="1" stop-color="rgb(23.262024%, 23.262024%, 23.262024%)" offset="0.703125"/><stop stop-opacity="1" stop-color="rgb(23.521423%, 23.521423%, 23.521423%)" offset="0.710938"/><stop stop-opacity="1" stop-color="rgb(23.780823%, 23.780823%, 23.780823%)" offset="0.71875"/><stop stop-opacity="1" stop-color="rgb(24.041748%, 24.041748%, 24.041748%)" offset="0.726562"/><stop stop-opacity="1" stop-color="rgb(24.301147%, 24.301147%, 24.301147%)" offset="0.734375"/><stop stop-opacity="1" stop-color="rgb(24.562073%, 24.562073%, 24.562073%)" offset="0.742188"/><stop stop-opacity="1" stop-color="rgb(24.821472%, 24.821472%, 24.821472%)" offset="0.75"/><stop stop-opacity="1" stop-color="rgb(25.080872%, 25.080872%, 25.080872%)" offset="0.757812"/><stop stop-opacity="1" stop-color="rgb(25.341797%, 25.341797%, 25.341797%)" offset="0.765625"/><stop stop-opacity="1" stop-color="rgb(25.601196%, 25.601196%, 25.601196%)" offset="0.773437"/><stop stop-opacity="1" stop-color="rgb(25.860596%, 25.860596%, 25.860596%)" offset="0.78125"/><stop stop-opacity="1" stop-color="rgb(26.121521%, 26.121521%, 26.121521%)" offset="0.789062"/><stop stop-opacity="1" stop-color="rgb(26.38092%, 26.38092%, 26.38092%)" offset="0.796875"/><stop stop-opacity="1" stop-color="rgb(26.64032%, 26.64032%, 26.64032%)" offset="0.804688"/><stop stop-opacity="1" stop-color="rgb(26.901245%, 26.901245%, 26.901245%)" offset="0.8125"/><stop stop-opacity="1" stop-color="rgb(27.160645%, 27.160645%, 27.160645%)" offset="0.820312"/><stop stop-opacity="1" stop-color="rgb(27.420044%, 27.420044%, 27.420044%)" offset="0.828125"/><stop stop-opacity="1" stop-color="rgb(27.680969%, 27.680969%, 27.680969%)" offset="0.835938"/><stop stop-opacity="1" stop-color="rgb(27.940369%, 27.940369%, 27.940369%)" offset="0.84375"/><stop stop-opacity="1" stop-color="rgb(28.199768%, 28.199768%, 28.199768%)" offset="0.851562"/><stop stop-opacity="1" stop-color="rgb(28.460693%, 28.460693%, 28.460693%)" offset="0.859375"/><stop stop-opacity="1" stop-color="rgb(28.720093%, 28.720093%, 28.720093%)" offset="0.867187"/><stop stop-opacity="1" stop-color="rgb(28.979492%, 28.979492%, 28.979492%)" offset="0.875"/><stop stop-opacity="1" stop-color="rgb(29.240417%, 29.240417%, 29.240417%)" offset="0.882812"/><stop stop-opacity="1" stop-color="rgb(29.499817%, 29.499817%, 29.499817%)" offset="0.890625"/><stop stop-opacity="1" stop-color="rgb(29.759216%, 29.759216%, 29.759216%)" offset="0.898438"/><stop stop-opacity="1" stop-color="rgb(30.020142%, 30.020142%, 30.020142%)" offset="0.90625"/><stop stop-opacity="1" stop-color="rgb(30.279541%, 30.279541%, 30.279541%)" offset="0.914062"/><stop stop-opacity="1" stop-color="rgb(30.53894%, 30.53894%, 30.53894%)" offset="0.921875"/><stop stop-opacity="1" stop-color="rgb(30.799866%, 30.799866%, 30.799866%)" offset="0.929688"/><stop stop-opacity="1" stop-color="rgb(31.059265%, 31.059265%, 31.059265%)" offset="0.9375"/><stop stop-opacity="1" stop-color="rgb(31.318665%, 31.318665%, 31.318665%)" offset="0.945312"/><stop stop-opacity="1" stop-color="rgb(31.57959%, 31.57959%, 31.57959%)" offset="0.953125"/><stop stop-opacity="1" stop-color="rgb(31.838989%, 31.838989%, 31.838989%)" offset="0.960937"/><stop stop-opacity="1" stop-color="rgb(32.098389%, 32.098389%, 32.098389%)" offset="0.96875"/><stop stop-opacity="1" stop-color="rgb(32.359314%, 32.359314%, 32.359314%)" offset="0.976562"/><stop stop-opacity="1" stop-color="rgb(32.618713%, 32.618713%, 32.618713%)" offset="0.984375"/><stop stop-opacity="1" stop-color="rgb(32.878113%, 32.878113%, 32.878113%)" offset="0.992188"/><stop stop-opacity="1" stop-color="rgb(33.139038%, 33.139038%, 33.139038%)" offset="1"/></linearGradient><clipPath id="4a31019e7b"><path d="M 62.484375 5.671875 L 312.097656 5.671875 L 312.097656 370.8125 L 62.484375 370.8125 Z M 62.484375 5.671875 " clip-rule="nonzero"/></clipPath></defs><g clip-path="url(#ee4cc1dbf8)"><g clip-path="url(#42e2bbb845)"><path fill="url(#2e3ac0e788)" d="M 0 0 L 0 374.648438 L 374.648438 374.648438 L 374.648438 0 Z M 0 0 " fill-rule="nonzero"/></g></g><g clip-path="url(#4a31019e7b)"><path fill="#ffffff" d="M 300.890625 145.289062 L 289.957031 109.058594 L 309.984375 139.425781 Z M 305.058594 191.433594 L 297.121094 190.125 L 249.5 132.585938 L 299.585938 147.347656 Z M 278.015625 264.230469 L 270.023438 246.617188 L 261.148438 188.195312 L 295.5625 191.707031 Z M 244.484375 305.644531 L 226.644531 304.285156 L 265.890625 252.648438 Z M 210.972656 367.175781 L 194.96875 332.980469 L 209.152344 264.945312 L 224.054688 305.09375 Z M 144.152344 257.667969 L 153.28125 292.6875 L 142.316406 302.925781 Z M 138.859375 154.167969 L 175.789062 154.167969 L 189.292969 180.382812 L 185.378906 199.207031 L 160.722656 177.808594 Z M 77.203125 153.011719 L 76.0625 148.359375 L 102.703125 144.832031 L 132.742188 153.066406 L 88.484375 160.402344 Z M 65.609375 130.839844 L 73.03125 126.6875 L 80.378906 131.300781 L 74.574219 146.226562 L 64.324219 138.710938 Z M 153.410156 32.308594 L 171.195312 36.351562 L 171.195312 45.378906 L 157.140625 46.480469 Z M 160.464844 11.609375 L 168.625 24.53125 C 168.644531 24.550781 168.660156 24.570312 168.679688 24.605469 L 173.472656 30.652344 L 171.582031 34.625 L 153.375 30.488281 Z M 196.882812 7.949219 L 204.523438 32.160156 L 181.742188 18.648438 Z M 251.082031 76.832031 L 211.285156 52.125 L 259.292969 71.609375 Z M 285.824219 103.523438 L 247.257812 129.683594 L 232.082031 103.523438 L 251.265625 79.09375 Z M 286.890625 104.941406 L 299.070312 145.363281 L 249.023438 130.621094 Z M 260.433594 186.359375 L 232.136719 164.90625 L 247.183594 132.570312 L 294.605469 189.851562 Z M 233.332031 168.03125 L 259.292969 187.699219 L 267.378906 240.9375 Z M 215.199219 226.027344 L 223.28125 297.960938 L 209.816406 261.671875 Z M 208.546875 258.292969 L 187.675781 202.996094 L 214.355469 219.707031 Z M 157.820312 253.328125 L 174.503906 333.109375 L 155.175781 292.796875 Z M 156.5 246.820312 L 153.761719 287.5 L 144.425781 251.785156 L 158.484375 217.316406 Z M 207.722656 262.335938 L 177.128906 337.0625 L 158.539062 248.105469 Z M 205.921875 259.980469 L 158.296875 246.214844 L 160.464844 213.953125 Z M 185.179688 201.378906 L 206.617188 258.179688 L 160.90625 211.890625 L 176.324219 193.675781 Z M 231.21875 167.679688 L 267.285156 244.910156 L 216.375 218.824219 Z M 190.984375 180.917969 L 229.695312 166.613281 L 214.792969 217.902344 L 186.921875 200.441406 Z M 227.894531 165.402344 L 190.652344 179.152344 L 177.957031 154.539062 Z M 213.03125 127.292969 L 229.511719 163.949219 L 178.417969 152.828125 Z M 140.148438 131.816406 L 179.464844 131.816406 L 136.765625 152.347656 L 105.734375 143.839844 Z M 82.21875 131.449219 L 112.035156 104.828125 L 134.726562 99.058594 C 134.746094 99.058594 134.746094 99.039062 134.761719 99.039062 C 134.761719 99.039062 134.78125 99.039062 134.78125 99.039062 L 147.441406 94.867188 L 139.246094 130.273438 L 102.574219 143.085938 L 76.339844 146.539062 Z M 81.371094 129.832031 L 74.777344 125.695312 L 105 108.746094 Z M 142.589844 73.542969 L 121.699219 78.964844 L 151.261719 50.96875 Z M 195.761719 65.085938 L 184.039062 75.914062 L 173.234375 53.15625 L 204.578125 35.910156 Z M 222.472656 76.777344 L 197.597656 65.085938 L 202.539062 48.761719 L 247.957031 76.980469 Z M 184.1875 131.210938 C 184.203125 131.171875 184.203125 131.136719 184.203125 131.097656 C 184.203125 131.082031 184.222656 131.0625 184.222656 131.023438 C 184.222656 130.953125 184.222656 130.859375 184.203125 130.769531 L 179.5 106.320312 L 211.800781 126.007812 L 177.976562 150.972656 Z M 177.480469 105.195312 L 182.273438 130.050781 L 141.101562 130.050781 L 149.277344 94.71875 Z M 178.160156 103.5625 L 150.949219 93.449219 L 183.945312 78.246094 L 219.167969 78.523438 Z M 196.699219 66.609375 L 218.25 76.738281 L 186.003906 76.5 Z M 133.828125 86.996094 L 121.148438 80.929688 L 143.324219 75.160156 L 180.308594 77.988281 L 148.617188 92.585938 Z M 134.890625 97.144531 L 132.320312 92.933594 L 133.957031 88.945312 L 146.007812 93.488281 Z M 230.320312 102.917969 L 213.179688 124.773438 L 179.941406 104.535156 L 222.511719 78.542969 L 249.296875 78.742188 Z M 231.035156 163.066406 L 214.410156 126.0625 L 230.925781 105.011719 L 245.992188 130.96875 Z M 180.511719 19.972656 L 204.265625 34.074219 L 172.960938 51.296875 L 172.960938 35.835938 Z M 171.195312 47.160156 L 171.195312 52.785156 C 171.195312 52.785156 171.195312 52.804688 171.195312 52.824219 C 171.195312 52.859375 171.195312 52.898438 171.214844 52.933594 C 171.214844 52.953125 171.214844 52.988281 171.234375 53.007812 C 171.234375 53.042969 171.25 53.082031 171.269531 53.117188 C 171.269531 53.117188 171.269531 53.136719 171.289062 53.15625 L 182.3125 76.371094 L 144.5 73.484375 L 154.109375 48.484375 Z M 119.148438 81.925781 L 132.339844 88.246094 L 130.519531 92.679688 C 130.425781 92.933594 130.445312 93.230469 130.59375 93.46875 L 133.128906 97.640625 L 112.898438 102.789062 Z M 140.714844 152.40625 L 181.890625 132.605469 L 175.679688 152.40625 Z M 160.980469 180.347656 L 174.980469 192.515625 L 160.632812 209.484375 Z M 193.28125 332.449219 L 178.472656 338.460938 L 206.085938 270.992188 Z M 216.375 220.808594 L 267.835938 247.167969 L 225.597656 302.742188 Z M 311.949219 139.207031 L 288.121094 103.046875 C 288.101562 103.046875 288.101562 103.027344 288.082031 103.027344 C 288.046875 102.953125 287.972656 102.898438 287.917969 102.84375 C 287.898438 102.84375 287.898438 102.824219 287.882812 102.824219 L 252.679688 77.917969 L 261.679688 72.179688 C 261.957031 71.996094 262.121094 71.683594 262.085938 71.355469 C 262.066406 71.023438 261.847656 70.746094 261.535156 70.617188 L 203.089844 46.90625 L 206.894531 34.347656 C 206.914062 34.273438 206.929688 34.203125 206.929688 34.109375 C 206.929688 34.074219 206.929688 34.054688 206.929688 34.035156 C 206.914062 33.980469 206.914062 33.90625 206.894531 33.851562 C 206.894531 33.851562 206.894531 33.832031 206.894531 33.832031 L 198.203125 6.277344 C 198.113281 6.003906 197.910156 5.800781 197.632812 5.707031 C 197.378906 5.617188 197.082031 5.652344 196.84375 5.816406 L 179.628906 18.007812 C 179.609375 18.007812 179.609375 18.007812 179.609375 18.007812 C 179.554688 18.042969 179.519531 18.097656 179.464844 18.136719 C 179.445312 18.152344 179.445312 18.171875 179.425781 18.191406 C 179.410156 18.207031 179.390625 18.246094 179.371094 18.261719 C 179.355469 18.28125 179.355469 18.300781 179.355469 18.320312 C 179.355469 18.320312 179.335938 18.335938 179.335938 18.335938 L 174.320312 28.890625 L 170.09375 23.539062 L 161 9.164062 C 160.835938 8.871094 160.503906 8.722656 160.171875 8.757812 C 159.84375 8.796875 159.546875 9.015625 159.4375 9.328125 L 151.371094 30.820312 C 151.371094 30.835938 151.371094 30.835938 151.355469 30.855469 C 151.355469 30.875 151.335938 30.910156 151.335938 30.929688 C 151.316406 30.984375 151.316406 31.019531 151.316406 31.058594 C 151.316406 31.078125 151.316406 31.078125 151.316406 31.09375 C 151.316406 31.167969 151.316406 31.261719 151.335938 31.332031 C 151.335938 31.332031 151.335938 31.351562 151.335938 31.351562 L 155.359375 46.609375 L 153.410156 46.777344 C 153.410156 46.777344 153.394531 46.777344 153.394531 46.777344 C 153.210938 46.792969 153.027344 46.867188 152.898438 46.996094 C 152.898438 46.996094 152.878906 46.996094 152.878906 47.015625 L 117.988281 80.03125 C 117.988281 80.050781 117.972656 80.066406 117.953125 80.085938 C 117.933594 80.105469 117.914062 80.121094 117.898438 80.140625 C 117.878906 80.195312 117.84375 80.234375 117.824219 80.289062 C 117.804688 80.324219 117.789062 80.34375 117.789062 80.363281 C 117.769531 80.378906 117.769531 80.398438 117.75 80.417969 L 110.859375 103.414062 L 64.378906 129.519531 C 64.140625 129.644531 63.972656 129.886719 63.9375 130.144531 L 62.503906 138.964844 C 62.449219 139.296875 62.578125 139.628906 62.851562 139.832031 L 74.1875 148.140625 L 75.566406 153.765625 C 75.621094 153.984375 75.75 154.167969 75.933594 154.296875 L 87.804688 162.074219 C 87.988281 162.183594 88.226562 162.238281 88.445312 162.203125 L 136.527344 154.226562 L 159.234375 178.785156 L 158.832031 211.746094 L 142.683594 251.398438 C 142.644531 251.488281 142.628906 251.5625 142.628906 251.65625 C 142.628906 251.671875 142.628906 251.671875 142.628906 251.691406 L 140.460938 305.003906 C 140.441406 305.351562 140.644531 305.683594 140.972656 305.828125 C 141.304688 305.976562 141.671875 305.921875 141.945312 305.683594 L 154 294.433594 L 176.066406 340.445312 C 176.066406 340.464844 176.082031 340.464844 176.082031 340.480469 C 176.101562 340.5 176.101562 340.519531 176.121094 340.519531 C 176.15625 340.59375 176.210938 340.664062 176.265625 340.722656 C 176.265625 340.722656 176.285156 340.722656 176.285156 340.722656 C 176.339844 340.777344 176.414062 340.8125 176.488281 340.847656 C 176.488281 340.847656 176.507812 340.867188 176.523438 340.867188 C 176.597656 340.90625 176.671875 340.921875 176.746094 340.921875 C 176.761719 340.921875 176.761719 340.941406 176.78125 340.941406 C 176.800781 340.941406 176.835938 340.941406 176.855469 340.941406 C 176.929688 340.941406 177.003906 340.921875 177.09375 340.90625 C 177.113281 340.90625 177.128906 340.90625 177.148438 340.886719 C 177.148438 340.886719 177.167969 340.886719 177.1875 340.867188 L 193.59375 334.230469 L 210.496094 370.300781 C 210.640625 370.613281 210.953125 370.8125 211.304688 370.8125 C 211.339844 370.8125 211.378906 370.8125 211.394531 370.8125 C 211.78125 370.757812 212.09375 370.484375 212.167969 370.117188 L 225.671875 305.976562 L 245 307.464844 C 245.386719 307.503906 245.734375 307.261719 245.882812 306.914062 L 269.234375 249.101562 L 277.464844 267.28125 C 277.628906 267.628906 277.976562 267.832031 278.363281 267.796875 C 278.730469 267.757812 279.042969 267.484375 279.136719 267.113281 L 297.324219 191.945312 L 305.921875 193.363281 C 306.199219 193.398438 306.472656 193.308594 306.675781 193.125 C 306.878906 192.9375 306.988281 192.644531 306.953125 192.371094 L 301.328125 147.109375 L 311.691406 140.4375 C 311.894531 140.308594 312.039062 140.105469 312.078125 139.867188 C 312.132812 139.648438 312.078125 139.40625 311.949219 139.207031 " fill-opacity="1" fill-rule="nonzero"/></g></svg>