<?xml version="1.0" standalone="no"?>
<!DOCTYPE svg PUBLIC "-//W3C//DTD SVG 20010904//EN"
 "http://www.w3.org/TR/2001/REC-SVG-20010904/DTD/svg10.dtd">
<svg version="1.0" xmlns="http://www.w3.org/2000/svg"
 width="500.000000pt" height="500.000000pt" viewBox="0 0 500.000000 500.000000"
 preserveAspectRatio="xMidYMid meet">

<g transform="translate(0.000000,500.000000) scale(0.100000,-0.100000)"
fill="#000000" stroke="none">
<path d="M3870 3779 c-141 -12 -258 -58 -340 -135 -161 -150 -157 -415 10
-597 57 -63 155 -145 261 -220 l67 -47 303 2 304 3 -99 73 c-55 40 -206 145
-337 233 -324 218 -390 281 -405 391 -17 125 71 221 229 248 197 35 372 -66
472 -272 25 -51 55 -124 67 -163 11 -38 22 -72 24 -74 4 -4 255 98 267 108 10
10 -70 119 -147 200 -182 189 -405 272 -676 250z"/>
<path d="M424 3688 c3 -29 9 -245 12 -480 l6 -428 198 0 198 0 6 433 c3 237 8
453 12 480 l6 47 -222 0 -222 0 6 -52z"/>
<path d="M1064 3703 c14 -85 26 -385 26 -645 0 -271 0 -278 20 -278 20 0 20 7
20 410 0 226 3 410 8 410 4 0 85 -179 180 -398 95 -218 176 -403 181 -410 6
-9 58 -12 229 -10 l221 3 -212 477 -212 478 -233 0 -234 0 6 -37z"/>
<path d="M2721 3718 c-5 -13 -92 -225 -195 -472 -102 -247 -186 -453 -186
-458 0 -5 12 -8 28 -6 26 3 34 20 190 408 90 223 167 409 172 414 7 7 10 -142
10 -407 l0 -417 194 0 193 0 7 408 c3 224 9 440 12 480 l6 72 -211 0 c-210 0
-212 0 -220 -22z"/>
<path d="M438 1928 c-4 -278 -7 -330 -22 -370 -24 -64 -84 -129 -151 -164 -58
-31 -59 -32 -47 -52 17 -26 257 30 366 85 69 35 161 125 192 188 49 101 56
145 61 398 l5 237 -200 0 -201 0 -3 -322z"/>
<path d="M1086 2188 c-3 -35 -8 -110 -11 -168 -3 -58 -8 -120 -11 -137 l-6
-33 52 0 53 0 -7 43 c-3 23 -9 113 -12 200 -7 154 -7 157 -30 157 -20 0 -23
-6 -28 -62z"/>
<path d="M1740 2242 c0 -5 42 -105 93 -223 l93 -214 36 -3 35 -3 76 188 c42
103 83 205 92 226 l15 37 -220 0 c-121 0 -220 -4 -220 -8z"/>
<path d="M2727 2082 c-4 -92 -9 -182 -13 -200 l-6 -32 224 0 224 0 -7 83 c-4
45 -11 135 -14 200 l-7 117 -197 0 -198 0 -6 -168z"/>
<path d="M3431 2175 c58 -85 165 -190 245 -241 73 -46 189 -92 282 -110 96
-19 297 -22 377 -5 79 17 197 72 253 118 72 59 132 168 147 266 l7 47 -117 0
-117 0 8 -32 c24 -105 -9 -223 -81 -286 -104 -92 -300 -105 -448 -31 -107 54
-218 169 -282 292 l-30 57 -148 0 -148 0 52 -75z"/>
</g>
</svg>
