<svg xmlns="http://www.w3.org/2000/svg" xmlns:xlink="http://www.w3.org/1999/xlink" width="500" zoomAndPan="magnify" viewBox="0 0 375 374.999991" height="500" preserveAspectRatio="xMidYMid meet" version="1.0"><defs><clipPath id="4e8812559c"><path d="M 0.289062 23.863281 L 374.589844 23.863281 L 374.589844 350.808594 L 0.289062 350.808594 Z M 0.289062 23.863281 " clip-rule="nonzero"/></clipPath></defs><g clip-path="url(#4e8812559c)"><path fill="#58417a" d="M 262.640625 40.191406 C 258.480469 38.1875 252.851562 35.632812 249.535156 34.726562 C 246.074219 33.785156 240.847656 31.898438 235.480469 30.257812 C 228.230469 28.042969 220.597656 26.691406 216.570312 26.851562 C 215.589844 26.894531 206.410156 25.386719 202.683594 25.542969 C 194.078125 25.910156 186.121094 23.519531 178.414062 23.914062 C 171.203125 24.277344 164.242188 27.421875 156.246094 27.878906 C 153.0625 28.058594 144.832031 30.691406 141.378906 31.042969 C 130.953125 34.992188 122.734375 32.613281 110.335938 43.785156 C 108.839844 45.136719 89.40625 52.410156 80.335938 60.414062 C 74.515625 65.546875 61.738281 72.257812 57.414062 78.742188 C 54.085938 83.738281 46.140625 86.652344 40.332031 95.886719 C 40.195312 96.109375 38.753906 97.632812 36.847656 99.675781 C 35.894531 100.6875 34.992188 101.832031 34.195312 103.054688 C 32.875 105.085938 33.15625 106.648438 33.324219 108.460938 C 33.714844 112.617188 37.804688 113.289062 40.929688 113.21875 C 43.910156 113.152344 49.074219 113 52.789062 113.53125 C 58.214844 114.304688 51.292969 116.953125 57.972656 117.625 C 61.457031 117.976562 65.023438 118.363281 68.464844 118.363281 C 76.152344 118.363281 84.800781 118.886719 92.425781 118.886719 C 93.535156 118.886719 95.667969 119.476562 97.101562 119.476562 C 96.375 119.4375 95.488281 120.035156 93.367188 120.425781 C 89.824219 121.085938 76.238281 122.164062 72.59375 122.164062 C 70.386719 122.164062 58.285156 122.359375 56.757812 123.046875 C 54.769531 123.9375 33.820312 123.742188 27.816406 124.398438 C 25.46875 124.652344 22.039062 126.167969 20.625 128.207031 C 18.070312 131.882812 14.761719 138.007812 14.585938 140.324219 C 14.433594 142.320312 9.140625 153.421875 8.289062 156.726562 C 6.109375 161.390625 0.429688 188.558594 0.429688 193.25 C 0.113281 194.796875 0.261719 195.015625 1.671875 195.015625 C 4.371094 195.015625 5.890625 195.1875 8.472656 195.351562 C 8.472656 195.351562 8.652344 195.347656 8.679688 195.347656 C 10.746094 195.347656 11.398438 195.375 13.355469 195.59375 C 16.359375 195.921875 17.703125 196.265625 20.96875 196.265625 C 26.007812 196.265625 30.980469 196.496094 36.007812 196.585938 C 38.8125 196.632812 42.308594 197.507812 44.507812 197.507812 C 51.832031 197.011719 72.390625 195.785156 78.765625 197.050781 C 82.945312 197.875 110.714844 200.589844 113.085938 199.210938 C 108.921875 204.421875 44.339844 199.902344 37.460938 203.207031 C 33.804688 204.957031 17.308594 205.246094 10.933594 206.304688 C 9.324219 206.570312 1.878906 205.820312 0.691406 206.800781 C 0.691406 211.902344 0.296875 216.734375 0.296875 222.132812 C 0.296875 223.5625 1.34375 224.191406 1.34375 228.277344 C 1.34375 231.816406 2.542969 234.507812 2.394531 238.976562 C 2.367188 239.675781 3.003906 242.671875 3.441406 243.199219 C 4.339844 243.691406 3.578125 248.144531 3.578125 249.40625 C 3.578125 254.769531 9.679688 267.695312 9.597656 268.730469 C 13.488281 269.042969 16.394531 271.328125 21.816406 271.214844 C 23.523438 271.183594 28.898438 272 31.910156 272 C 36.507812 272 53.085938 271.523438 56.101562 271.871094 C 51.675781 276.09375 35.636719 274.957031 27.789062 276.644531 C 23.945312 277.472656 16.332031 278.285156 12.351562 278.285156 C 21.980469 309.558594 33.382812 308.480469 39.257812 322.261719 C 40.453125 325.066406 46.355469 333.148438 51.796875 339.796875 C 55.109375 339.21875 58.171875 338.03125 60.816406 335.0625 C 76.46875 317.460938 92.402344 340.59375 95.585938 343.648438 C 95.003906 347.453125 95.125 350.808594 95.125 350.808594 C 96.410156 346.234375 96.789062 343.921875 98.832031 339.617188 C 99.78125 337.613281 101.175781 335.191406 104.910156 333.113281 C 104.105469 332.25 103.726562 331.484375 103.636719 331.214844 C 103.492188 330.78125 100.253906 329.042969 102.429688 325.785156 C 104.550781 322.613281 104.992188 317.40625 104.992188 313.578125 C 104.992188 311.425781 104.550781 306.878906 105.976562 304.039062 C 107.230469 301.558594 109.578125 301.730469 112.371094 299.9375 C 116.832031 297.074219 123.113281 291.636719 126.949219 287.835938 C 132.46875 282.367188 136.394531 265.101562 130.890625 257.667969 C 125.9375 268.125 113.640625 283.261719 91.871094 281.472656 C 72.191406 278.503906 58.363281 260.394531 66.308594 252.359375 C 79.199219 239.308594 82.984375 263.664062 99.035156 259.214844 C 111.242188 255.832031 124.472656 240.355469 131.265625 233.230469 C 139.15625 224.953125 145.605469 221.320312 151.042969 218.394531 C 160.136719 213.488281 167.746094 212.769531 184.476562 211.753906 C 202.882812 210.636719 240.203125 215.539062 247.644531 196.261719 C 245.367188 197.71875 238.660156 195.144531 237.445312 192.210938 C 244.828125 188.710938 249.753906 185.4375 254.628906 178.964844 C 257.445312 175.023438 260.5625 170.152344 265.730469 169.140625 C 265.730469 169.140625 268.121094 168.722656 269.132812 168.894531 C 271.851562 167.820312 273.3125 165.480469 274.910156 163.210938 C 278.585938 157.988281 282.082031 153.0625 289.292969 159.230469 L 292.390625 167.136719 C 287.046875 176.632812 285.578125 184.617188 286.109375 194.832031 C 286.726562 206.675781 289.546875 220.636719 283.089844 231.894531 C 275.628906 244.90625 256.648438 255.78125 252.605469 277.472656 C 252.605469 277.472656 252.972656 295.257812 253.839844 308.722656 C 256.640625 307.699219 259.527344 306.898438 262.269531 306.363281 C 271.773438 304.507812 277.199219 310.472656 283.835938 316.738281 C 298.972656 331.019531 312.183594 323.324219 322.84375 330.464844 C 325.167969 332.027344 327.242188 333.101562 329.101562 333.78125 C 337.25 324.167969 343.914062 314.527344 346 307.941406 C 351.289062 291.238281 365.839844 284.203125 372.542969 251.339844 C 372.855469 249.808594 373.109375 250.933594 373.109375 247.71875 C 371.910156 246.277344 363.757812 246.289062 357.75 246.066406 C 350.710938 245.816406 337.304688 245.648438 331.917969 244.738281 C 329.140625 244.269531 326.554688 245.082031 322.472656 244.214844 C 321.757812 244.066406 312 243.984375 309.660156 243.691406 C 306.59375 243.3125 302.300781 242.484375 299.230469 242.484375 C 300.402344 241.71875 307.136719 241.957031 309.574219 241.46875 C 313.757812 240.617188 325.457031 241.222656 328.765625 239.761719 C 328.832031 239.734375 342.179688 239.625 345.28125 238.714844 C 354.863281 235.917969 367.265625 239.949219 371.542969 234.46875 C 372.398438 233.378906 373.433594 233.289062 373.503906 231.179688 C 373.574219 229.132812 373.59375 227.105469 374.121094 224.953125 C 374.773438 222.277344 374.546875 204.066406 374.546875 199.664062 C 374.296875 198.785156 370.355469 172.203125 370.355469 171.058594 C 370.355469 170.757812 369.941406 168.261719 369.390625 165.410156 C 368.136719 158.890625 366.066406 158.523438 364.476562 158.058594 C 363.246094 157.699219 363.140625 156.617188 358.628906 156.703125 C 350.324219 156.867188 338.800781 156.644531 337.066406 155.976562 C 334.058594 154.808594 313.476562 156.078125 310.097656 154.925781 C 309.527344 154.730469 297.042969 154.074219 294.375 153.980469 C 301.527344 152.667969 305.101562 153.121094 307.554688 152.441406 C 307.734375 152.390625 312.582031 152.394531 317.164062 151.988281 C 322.25 151.542969 327.15625 150.6875 328.289062 150.640625 C 333.917969 150.402344 340.367188 150.269531 341.941406 149.59375 C 344.4375 148.519531 361.789062 150.917969 364.066406 149.65625 C 362.507812 144.648438 361.804688 146.886719 360.792969 141.230469 C 359.558594 134.296875 353.320312 129.851562 351.328125 121.003906 C 350.871094 118.996094 349.445312 117.539062 349.398438 116.664062 C 345.25 114.457031 345.925781 108.875 342.128906 105.144531 C 340.257812 103.304688 337.453125 99.207031 334.300781 94.644531 C 333.257812 93.890625 332.117188 93.105469 330.957031 92.34375 C 325.285156 88.617188 326.183594 88.863281 319.105469 88.589844 C 309.601562 88.230469 299.8125 89.003906 293.238281 88.636719 C 287.867188 88.335938 285.675781 87.90625 285.109375 87.390625 C 283.570312 85.980469 292.332031 83.070312 282.320312 83.179688 C 271.808594 83.285156 251.128906 83.566406 248.335938 83.566406 C 243.339844 83.566406 237.324219 83.4375 232.652344 82.285156 C 230.992188 81.875 228.574219 81.71875 229.730469 81.011719 C 231.570312 79.867188 246.003906 80.761719 249.824219 79.367188 C 249.917969 79.335938 272.511719 78.660156 275.277344 77.953125 C 281.328125 76.40625 290.011719 78.84375 296.378906 77.742188 C 297.695312 77.515625 301.367188 76.914062 304.601562 75.976562 C 308.988281 74.707031 308.933594 72.664062 309.398438 71.457031 C 310.195312 69.398438 308.597656 68.167969 304.511719 65.847656 C 302.597656 64.753906 300.652344 63.683594 298.8125 62.675781 C 294.875 60.511719 293.117188 58.082031 291.371094 56.792969 C 289.398438 55.339844 285.597656 53.171875 283.476562 51.789062 C 279.019531 48.886719 267.035156 42.308594 262.640625 40.191406 Z M 114.625 329.902344 C 119.277344 329.015625 125.378906 328.46875 133.429688 328.46875 C 137.441406 328.46875 144.023438 326.828125 150.339844 325.285156 C 158.519531 323.289062 164.839844 326.15625 166.402344 334.554688 C 167.976562 343.03125 179.96875 336.144531 188.5 331.066406 C 185.242188 329.402344 172.445312 322.394531 172.050781 315.160156 C 171.597656 306.871094 172.90625 297.375 171.449219 295.105469 C 166.351562 287.183594 156.628906 275.09375 153.640625 264.722656 C 155.152344 271.363281 158.609375 279.085938 161.597656 282.886719 C 154.851562 294.492188 150.160156 296.800781 138.308594 301.964844 C 131.078125 305.121094 122.242188 309.539062 117.882812 314.835938 C 115.644531 317.550781 114.804688 324.410156 114.625 329.902344 Z M 200.46875 325.394531 C 204.871094 324.316406 208.847656 324.609375 212.40625 325.585938 C 212.660156 323.347656 214.953125 322.101562 216.613281 320.417969 C 218.710938 318.28125 221.84375 314.890625 223.332031 312.230469 C 225.1875 308.921875 226.527344 303.726562 223.5625 300.765625 C 219.644531 296.84375 211.949219 287.496094 208.480469 283.273438 C 205.011719 279.058594 190.605469 277.242188 189.09375 275.132812 C 189.09375 275.132812 189.699219 279.28125 188.644531 284.105469 C 187.589844 288.929688 181.40625 310.035156 188.796875 316.519531 C 192.945312 320.15625 197.375 323.320312 200.46875 325.394531 Z M 220.589844 329.089844 C 225.835938 332.011719 229.796875 335.179688 232.628906 334.34375 C 232.238281 338.554688 232.011719 342.78125 232.011719 342.78125 C 233.234375 338.269531 234.492188 334.277344 235.855469 330.164062 C 236.472656 328.300781 236.96875 325.742188 237.347656 322.324219 C 237.671875 319.417969 239.855469 316.679688 243.054688 314.292969 C 242.433594 309.785156 242.078125 302.3125 240.082031 299.03125 C 238.402344 296.257812 236.261719 289.585938 235.203125 284.992188 C 234.464844 281.789062 232.9375 279.414062 230.953125 277.421875 C 229.234375 275.703125 226.09375 274.105469 228.964844 277.882812 C 229.519531 278.613281 230.097656 279.738281 230.535156 281.445312 C 231.265625 284.339844 232.816406 289.503906 235.710938 295.339844 C 238.664062 301.292969 239.753906 305.863281 238.578125 308.71875 C 237.65625 310.949219 232.558594 316.757812 229.164062 321.203125 C 228.660156 321.867188 228.199219 322.5 227.792969 323.078125 C 225.34375 326.574219 223.816406 327.890625 220.589844 329.089844 " fill-opacity="1" fill-rule="evenodd"/></g></svg>
