<?xml version="1.0" standalone="no"?>
<!DOCTYPE svg PUBLIC "-//W3C//DTD SVG 20010904//EN"
 "http://www.w3.org/TR/2001/REC-SVG-20010904/DTD/svg10.dtd">
<svg version="1.0" xmlns="http://www.w3.org/2000/svg"
 width="500.000000pt" height="500.000000pt" viewBox="0 0 500.000000 500.000000"
 preserveAspectRatio="xMidYMid meet">

<g transform="translate(0.000000,500.000000) scale(0.100000,-0.100000)"
fill="#000000" stroke="none">
<path d="M0 2500 l0 -2500 2500 0 2500 0 0 2500 0 2500 -2500 0 -2500 0 0
-2500z m2740 1979 c467 -52 930 -293 1247 -649 171 -192 331 -468 408 -704
160 -491 125 -1032 -99 -1491 -238 -490 -650 -853 -1164 -1025 -219 -73 -383
-100 -612 -101 -142 0 -168 4 -152 24 7 10 9 871 2 880 -1 1 -3 10 -5 20 -3
17 -2 17 20 3 16 -10 35 -14 54 -10 28 6 31 10 31 44 0 34 -3 38 -32 44 -24 5
-37 1 -53 -14 l-21 -20 0 24 c0 14 3 23 6 21 8 -5 6 138 -2 150 -4 7 7 12 30
13 20 2 40 9 45 17 11 20 47 19 47 0 0 -10 11 -15 35 -15 19 0 35 2 35 5 0 3
-12 53 -26 111 l-27 105 -40 -3 -41 -3 -18 -75 c-10 -41 -22 -82 -25 -90 -3
-8 -7 -18 -7 -22 -1 -3 -3 -9 -6 -12 -3 -3 -6 15 -6 39 0 24 3 42 6 40 9 -5 5
399 -4 413 -5 9 -1 15 13 19 12 3 18 10 14 17 -4 6 -8 20 -8 31 -1 11 -7 19
-14 17 -8 -1 -10 2 -5 10 11 17 13 59 3 52 -4 -2 -10 0 -14 6 -4 6 -10 8 -14
5 -12 -7 -31 42 -24 62 6 17 5 17 -15 0 -20 -18 -20 -18 -18 0 3 19 23 25 41
12 12 -9 23 -2 43 23 11 14 11 16 -5 14 -10 -2 -18 -8 -18 -14 0 -6 -4 -14 -8
-19 -5 -4 -7 -1 -5 7 2 11 -4 14 -23 12 -22 -3 -29 5 -57 59 -39 76 -40 83 -4
74 15 -4 34 -9 42 -10 8 -2 15 -4 15 -5 0 -1 16 -3 36 -4 23 -2 36 2 36 10 0
7 -4 11 -9 8 -4 -3 -8 0 -8 6 0 6 -6 10 -12 8 -13 -3 -88 51 -88 63 0 9 38 18
45 11 3 -4 21 -7 40 -7 26 -1 32 2 24 11 -5 7 -18 11 -27 9 -9 -1 -21 0 -27 4
-12 7 -8 6 -60 15 -37 7 -44 14 -89 88 -26 43 -46 81 -43 84 2 3 43 -13 91
-35 47 -22 86 -37 86 -34 0 3 7 0 15 -7 8 -7 15 -9 15 -5 0 5 9 0 19 -9 11
-10 22 -13 25 -8 3 5 -1 15 -9 22 -8 7 -15 9 -15 5 0 -5 -9 0 -20 10 -11 10
-20 14 -20 10 0 -4 -8 -1 -17 7 -10 8 -62 34 -116 59 l-97 44 -64 90 c-86 123
-85 118 -29 96 112 -45 146 -63 232 -125 50 -36 91 -63 91 -59 0 4 15 -7 33
-25 l33 -32 0 25 c0 13 -2 23 -4 20 -2 -2 -12 4 -23 13 -11 9 -21 15 -24 12
-2 -3 -15 6 -29 19 -14 13 -115 83 -223 155 l-198 131 -45 90 c-25 50 -50 97
-55 105 -18 28 -15 41 8 34 54 -17 131 -64 241 -148 117 -89 326 -284 326
-304 0 -5 6 -14 13 -20 10 -9 13 -2 12 33 0 43 -8 60 -25 60 -5 0 -44 34 -87
75 -43 42 -115 109 -161 149 -45 41 -80 76 -78 78 5 6 243 -164 287 -204 14
-13 28 -20 32 -16 4 3 7 2 7 -4 0 -6 6 -13 13 -16 9 -3 12 130 12 648 0 359
-3 651 -6 649 -3 -1 -6 3 -6 10 0 9 19 14 61 15 33 1 61 3 63 4 4 5 164 -4
253 -14z m-396 -638 c-1 -356 -2 -648 -3 -650 0 -3 -13 7 -29 22 l-27 26 0
613 c0 337 3 618 7 624 4 5 17 10 30 10 l23 0 -1 -645z m3 -767 c0 -10 -11 -5
-32 16 -17 17 -32 37 -32 46 0 10 11 5 32 -16 17 -17 32 -37 32 -46z m-46
-121 c13 -16 12 -17 -3 -4 -10 7 -18 15 -18 17 0 8 8 3 21 -13z m40 -20 c13
-16 12 -17 -3 -4 -10 7 -18 15 -18 17 0 8 8 3 21 -13z m4 -346 c4 5 5 3 2 -4
-6 -9 -26 -11 -47 -3 -3 1 -7 2 -10 2 -4 0 -6 10 -6 24 l0 24 26 -25 c15 -14
30 -22 35 -18z m-35 -232 c0 4 6 2 13 -4 8 -6 16 -9 19 -6 2 3 4 -12 3 -33 0
-21 -6 -38 -13 -38 -7 -1 -13 -2 -14 -4 -2 -1 -10 -3 -18 -5 -12 -2 -15 8 -15
51 0 41 2 50 12 42 7 -6 13 -7 13 -3z m35 -497 l0 -357 -21 19 c-13 13 -24 16
-30 10 -6 -6 -9 21 -9 74 0 47 3 83 6 80 3 -2 14 5 24 16 10 11 15 20 10 20
-4 0 -3 6 2 13 5 6 9 50 9 97 -1 84 -1 85 -26 85 l-25 0 -1 145 c0 80 1 148 2
151 2 3 16 5 31 4 l28 -1 0 -356z m129 -73 c3 -8 1 -15 -4 -15 -6 0 -10 7 -10
15 0 8 2 15 4 15 2 0 6 -7 10 -15z m-128 -322 c0 -15 -3 -20 -10 -13 -14 14
-16 37 -2 37 7 0 12 -11 12 -24z m84 5 c0 -16 -3 -19 -11 -11 -6 6 -8 16 -5
22 11 17 16 13 16 -11z m-115 -53 c6 -1 15 2 20 6 7 5 10 -145 10 -448 0 -426
-1 -456 -17 -459 -10 -1 -20 2 -24 7 -3 5 -8 7 -12 5 -4 -2 -7 200 -7 449 0
301 3 451 10 447 5 -4 15 -7 20 -7z"/>
<path d="M2738 1899 c-13 -7 -18 -23 -18 -57 0 -55 12 -72 52 -72 20 0 28 -5
27 -17 0 -11 -3 -13 -6 -5 -2 6 -20 12 -39 12 -34 0 -35 -1 -32 -32 l3 -33 64
-3 c73 -3 81 2 81 64 0 47 -14 64 -52 64 -23 0 -28 4 -27 23 1 16 2 18 6 5 3
-13 15 -18 39 -18 31 0 34 3 34 30 0 19 -7 33 -19 40 -25 13 -91 13 -113 -1z"/>
<path d="M2930 1800 l0 -110 30 0 c29 0 30 2 31 43 0 35 2 38 9 20 6 -15 18
-23 34 -23 18 0 26 6 29 23 2 12 5 3 6 -20 1 -41 3 -43 31 -43 l30 0 0 110 0
110 -34 0 c-31 0 -34 -3 -46 -46 -14 -50 -22 -48 -40 9 -10 33 -15 37 -46 37
l-34 0 0 -110z"/>
<path d="M3200 1800 l0 -110 30 0 30 0 0 110 0 110 -30 0 -30 0 0 -110z"/>
<path d="M3317 1903 c-4 -3 -7 -15 -7 -25 0 -13 7 -18 25 -18 25 0 25 -1 25
-85 l0 -85 30 0 30 0 0 85 c0 78 2 85 20 85 15 0 20 7 20 25 0 24 -2 25 -68
25 -38 0 -72 -3 -75 -7z"/>
<path d="M3510 1800 l0 -110 35 0 c34 0 35 1 35 40 0 29 4 40 15 40 11 0 15
-11 15 -40 0 -39 1 -40 35 -40 l35 0 0 110 0 110 -35 0 c-35 0 -35 0 -35 -45
0 -33 -4 -45 -15 -45 -11 0 -15 12 -15 45 0 45 0 45 -35 45 l-35 0 0 -110z"/>
<path d="M2610 1490 c0 -47 3 -60 15 -60 8 0 15 5 15 12 0 9 3 9 12 0 7 -7 20
-12 31 -12 17 0 17 2 3 22 -14 20 -14 24 2 41 16 19 16 20 -15 15 -29 -4 -33
-2 -33 19 0 14 -6 23 -15 23 -12 0 -15 -13 -15 -60z"/>
<path d="M2820 1490 l0 -60 40 0 c48 0 75 31 64 74 -8 31 -31 46 -73 46 l-31
0 0 -60z m68 -3 c3 -22 -1 -27 -17 -27 -17 0 -21 6 -21 31 0 24 4 30 18 27 10
-2 18 -14 20 -31z"/>
<path d="M2518 1509 c-25 -14 -23 -65 2 -79 24 -13 63 -4 57 13 -2 7 -12 12
-23 12 -10 0 -19 7 -19 15 0 8 7 14 17 12 22 -3 34 18 17 29 -18 11 -30 11
-51 -2z"/>
<path d="M2978 1509 c-33 -19 -12 -89 25 -89 37 1 57 52 31 81 -19 21 -31 23
-56 8z"/>
<path d="M3080 1506 c0 -2 7 -20 15 -40 10 -24 22 -36 35 -36 13 0 25 12 35
36 18 44 18 44 0 44 -7 0 -19 -8 -25 -17 -10 -17 -10 -17 -20 0 -9 14 -40 25
-40 13z"/>
<path d="M2730 1475 c0 -10 10 -15 30 -15 20 0 30 5 30 15 0 10 -10 15 -30 15
-20 0 -30 -5 -30 -15z"/>
<path d="M2299 4477 c-1 -1 -2 -280 -3 -620 -1 -607 -1 -618 19 -637 l20 -19
0 636 c0 598 -1 636 -18 639 -9 1 -18 2 -18 1z m26 -633 c0 -415 -3 -620 -10
-613 -14 14 -14 1236 0 1236 7 0 10 -212 10 -623z"/>
<path d="M2310 3105 c13 -14 26 -25 28 -25 3 0 -5 11 -18 25 -13 14 -26 25
-28 25 -3 0 5 -11 18 -25z"/>
<path d="M2290 2606 c0 -2 8 -10 18 -17 15 -13 16 -12 3 4 -13 16 -21 21 -21
13z"/>
<path d="M2296 2311 c2 -47 2 -45 17 -32 8 6 16 9 19 6 3 -3 4 6 4 19 -2 27
-10 39 -29 42 -9 1 -13 -10 -11 -35z m30 4 c1 -8 -4 -19 -10 -25 -10 -7 -12
-3 -10 18 1 15 2 29 3 31 2 8 15 -10 17 -24z"/>
<path d="M2295 2065 c0 -135 1 -141 20 -141 19 0 20 6 20 141 0 135 -1 141
-20 141 -19 0 -20 -6 -20 -141z m30 3 c0 -73 -4 -124 -10 -125 -9 -3 -16 232
-7 250 12 24 17 -16 17 -125z"/>
<path d="M2314 1689 c-14 -16 -19 -37 -19 -84 -1 -35 1 -62 4 -60 2 3 12 -1
20 -9 15 -13 16 -6 16 80 0 52 0 94 -1 94 0 0 -9 -9 -20 -21z m11 -73 c0 -52
-3 -72 -10 -66 -18 15 -10 140 8 140 1 0 2 -33 2 -74z"/>
<path d="M2295 974 c0 -238 4 -436 8 -440 31 -31 32 -12 32 430 0 436 0 442
-20 442 -20 0 -20 -6 -20 -432z m30 -11 c0 -279 -4 -427 -10 -425 -9 2 -17
836 -7 855 14 28 17 -50 17 -430z"/>
</g>
</svg>
